<?xml version="1.0" encoding="UTF-8"?>
<svg id="Capa_1" data-name="Capa 1" xmlns="http://www.w3.org/2000/svg" viewBox="0 0 109.29 362.26">
  <defs>
    <style>
      .cls-1 {
        fill: #fff;
      }
    </style>
  </defs>
  <path class="cls-1" d="M27.95,0c0,18.34-6.82,27.64-13.41,36.64C7.78,45.86,1.4,54.57,1.4,72.45s6.38,26.59,13.14,35.81c6.59,9,13.41,18.3,13.41,36.64s-6.82,27.64-13.41,36.64c-6.76,9.22-13.14,17.93-13.14,35.81s6.38,26.59,13.14,35.81c6.59,8.99,13.41,18.3,13.41,36.64s-6.82,27.64-13.41,36.64c-6.76,9.22-13.14,17.93-13.14,35.81H0c0-18.34,6.82-27.64,13.41-36.64,6.76-9.22,13.14-17.93,13.14-35.81s-6.38-26.59-13.14-35.81c-6.59-9-13.41-18.3-13.41-36.64s6.82-27.64,13.41-36.64c6.76-9.22,13.14-17.93,13.14-35.81s-6.38-26.59-13.14-35.81C6.82,100.1,0,90.8,0,72.45s6.82-27.65,13.41-36.64C20.17,26.59,26.55,17.88,26.55,0h1.4Z"/>
  <path class="cls-1" d="M48.28,0c0,18.34-6.82,27.64-13.41,36.64-6.76,9.22-13.14,17.93-13.14,35.81s6.38,26.59,13.14,35.81c6.59,9,13.41,18.3,13.41,36.64s-6.82,27.64-13.41,36.64c-6.76,9.22-13.14,17.93-13.14,35.81s6.38,26.59,13.14,35.81c6.59,8.99,13.41,18.3,13.41,36.64s-6.82,27.64-13.41,36.64c-6.76,9.22-13.14,17.93-13.14,35.81h-1.4c0-18.34,6.82-27.64,13.41-36.64,6.76-9.22,13.14-17.93,13.14-35.81s-6.38-26.59-13.14-35.81c-6.59-9-13.41-18.3-13.41-36.64s6.82-27.64,13.41-36.64c6.76-9.22,13.14-17.93,13.14-35.81s-6.38-26.59-13.14-35.81c-6.59-9-13.41-18.3-13.41-36.64s6.82-27.65,13.41-36.64c6.76-9.22,13.14-17.93,13.14-35.81h1.4Z"/>
  <path class="cls-1" d="M68.62,0c0,18.34-6.82,27.64-13.41,36.64-6.76,9.22-13.14,17.93-13.14,35.81s6.38,26.59,13.14,35.81c6.59,9,13.41,18.3,13.41,36.64s-6.82,27.64-13.41,36.64c-6.76,9.22-13.14,17.93-13.14,35.81s6.38,26.59,13.14,35.81c6.59,8.99,13.41,18.3,13.41,36.64s-6.82,27.64-13.41,36.64c-6.76,9.22-13.14,17.93-13.14,35.81h-1.4c0-18.34,6.82-27.64,13.41-36.64,6.76-9.22,13.14-17.93,13.14-35.81s-6.38-26.59-13.14-35.81c-6.59-9-13.41-18.3-13.41-36.64s6.82-27.64,13.41-36.64c6.76-9.22,13.14-17.93,13.14-35.81s-6.38-26.59-13.14-35.81c-6.59-9-13.41-18.3-13.41-36.64s6.82-27.65,13.41-36.64c6.76-9.22,13.14-17.93,13.14-35.81h1.4Z"/>
  <path class="cls-1" d="M88.95,0c0,18.34-6.82,27.64-13.41,36.64-6.76,9.22-13.14,17.93-13.14,35.81s6.38,26.59,13.14,35.81c6.59,9,13.41,18.3,13.41,36.64s-6.82,27.64-13.41,36.64c-6.76,9.22-13.14,17.93-13.14,35.81s6.38,26.59,13.14,35.81c6.59,8.99,13.41,18.3,13.41,36.64s-6.82,27.64-13.41,36.64c-6.76,9.22-13.14,17.93-13.14,35.81h-1.4c0-18.34,6.82-27.64,13.41-36.64,6.76-9.22,13.14-17.93,13.14-35.81s-6.38-26.59-13.14-35.81c-6.59-9-13.41-18.3-13.41-36.64s6.82-27.64,13.41-36.64c6.76-9.22,13.14-17.93,13.14-35.81s-6.38-26.59-13.14-35.81c-6.59-9-13.41-18.3-13.41-36.64s6.82-27.65,13.41-36.64c6.76-9.22,13.14-17.93,13.14-35.81h1.4Z"/>
  <path class="cls-1" d="M109.29,0c0,18.34-6.82,27.64-13.41,36.64-6.76,9.22-13.14,17.93-13.14,35.81s6.38,26.59,13.14,35.81c6.59,9,13.41,18.3,13.41,36.64s-6.82,27.64-13.41,36.64c-6.76,9.22-13.14,17.93-13.14,35.81s6.38,26.59,13.14,35.81c6.59,8.99,13.41,18.3,13.41,36.64s-6.82,27.64-13.41,36.64c-6.76,9.22-13.14,17.93-13.14,35.81h-1.4c0-18.34,6.82-27.64,13.41-36.64,6.76-9.22,13.14-17.93,13.14-35.81s-6.38-26.59-13.14-35.81c-6.59-9-13.41-18.3-13.41-36.64s6.82-27.64,13.41-36.64c6.76-9.22,13.14-17.93,13.14-35.81s-6.38-26.59-13.14-35.81c-6.59-9-13.41-18.3-13.41-36.64s6.82-27.65,13.41-36.64c6.76-9.22,13.14-17.93,13.14-35.81h1.4Z"/>
</svg>