<?xml version="1.0" encoding="UTF-8"?>
<svg id="Capa_1" data-name="Capa 1" xmlns="http://www.w3.org/2000/svg" viewBox="0 0 348.07 215.1">
  <defs>
    <style>
      .cls-1 {
        fill: #fff;
        fill-rule: evenodd;
      }
    </style>
  </defs>
  <path class="cls-1" d="M153.38,81.87c1.04-3.52,3.94-10.05,8.61-15.24,4.66-5.19,10.98-9.11,19.07-12.33,8.09-3.1,17.93-5.59,25.81-6,7.88-.42,13.78,1.14,20.21,4.14,6.32,3.11,13.05,7.57,17.93,14.72,4.77,7.05,7.57,16.79,6.73,26.63-.83,9.95-5.29,20-14.4,29.23-9.12,9.22-23.01,17.62-39.08,21.77-16.06,4.25-34.3,4.25-49.23.31-14.92-3.84-26.42-11.61-35.54-23.32-9.12-11.71-15.75-27.35-17-42.18-1.25-14.92,2.9-28.91,10.47-40.62,7.56-11.61,18.45-20.83,30.15-27.36,11.61-6.53,24.15-10.26,36.58-11.3,12.33-1.04,24.56.52,40.73,6.22,16.16,5.7,36.17,15.55,52.75,22.69,16.69,7.05,29.84,11.4,43.01,14.2,13.06,2.69,26.02,3.84,32.55,5.19,6.53,1.35,6.63,3,2.69,4.04-3.94.94-11.92,1.25-21.66.94-9.84-.42-21.45-1.36-38.55-6.32-17.21-4.98-39.9-13.89-57.73-20.31-17.93-6.33-30.98-10.16-43.32-9.95-12.43.21-24.15,4.35-34.3,11.5-10.26,7.16-18.97,17.31-21.98,30.68-3,13.26-.31,29.63,5.59,41.35,6.01,11.71,15.14,18.76,25.61,21.24,10.57,2.59,22.59.63,32.75-2.69,10.16-3.42,18.45-8.19,23.94-13.88,5.49-5.7,8.19-12.23,8.8-18.66.73-6.43-.62-12.85-3.31-17.83-2.69-4.98-6.74-8.5-12.95-9.95-6.12-1.35-14.51-.52-22.19,1.97-7.77,2.48-14.92,6.63-20.1,11.3-5.18,4.66-8.4,9.63-10.57,11.81-2.07,2.18-3.11,1.56-2.07-1.96"/>
  <path class="cls-1" d="M3.52,164.98c7.26.42,26.74-1.56,45.39.73,18.56,2.27,36.39,8.91,52.55,17.1,16.16,8.29,30.78,18.24,45.7,24.35,14.93,6.22,30.16,8.61,45.5,7.78,15.45-.73,30.99-4.67,44.04-10.16,13.06-5.49,23.74-12.54,33.79-22.28,10.05-9.74,19.48-22.08,28.08-33.79,8.51-11.82,16.17-23,19.59-28.92,3.42-5.9,2.59-6.52,1.45-6.42-1.14.21-2.48,1.04-10.78,8.7-8.19,7.57-23.21,21.87-36.78,32.96-13.68,11.09-25.81,18.97-39.39,24.36-13.57,5.49-28.5,8.5-44.77,7.98-16.27-.42-33.78-4.36-48.29-9.01-14.51-4.77-26.02-10.37-41.35-14.72-15.45-4.36-34.62-7.46-50.57-7.98-16.06-.52-28.82,1.45-37.73,3.83-8.8,2.38-13.68,5.08-6.42,5.49"/>
</svg>