<?xml version="1.0" encoding="UTF-8"?>
<svg id="Capa_1" xmlns="http://www.w3.org/2000/svg" version="1.1" viewBox="0 0 841.89 172.98">
  <!-- Generator: Adobe Illustrator 29.8.1, SVG Export Plug-In . SVG Version: 2.1.1 Build 2)  -->
  <defs>
    <style>
      .st0 {
        fill: #fff;
      }
    </style>
  </defs>
  <g>
    <path class="st0" d="M78.61,71.46c.1-1.05.1-1.57.1-3.46,0-4.92-.84-6.5-4.82-6.5s-4.71,1.57-4.71,6.5c0,4.61,1.15,5.87,3.77,7.44,6.29,3.67,10.48,4.61,14.56,7.33,4.61,3.25,6.7,6.91,6.7,20.11,0,18.86-4.71,24.62-20.74,24.62-13.1,0-19.07-4.3-19.07-16.76,0-3.98.21-8.59.84-11.1h13.72c-.21.84-.21,1.78-.21,2.93,0,6.08.84,8.07,5.03,8.07s5.13-1.36,5.13-8.07c0-4.09-1.15-5.66-3.98-7.65-5.13-3.46-11.73-5.03-16.03-8.91-4.3-3.77-4.61-10.06-4.61-20.53,0-14.88,3.98-20.01,19.59-20.01,14.14,0,19.17,4.09,19.17,17.5,0,4.3-.21,6.5-.84,8.49h-13.62.02Z"/>
    <path class="st0" d="M126.9,126.15v-32.58h-10.27v32.58h-16.87V46.84h16.87v30.7h10.27v-30.7h16.87v79.31s-16.87,0-16.87,0Z"/>
    <path class="st0" d="M175.51,126.15l-1.36-18.33h-7.96l-1.26,18.33h-16.55l8.49-79.31h27.66l7.96,79.31h-16.98ZM170.69,63.39h-1.15l-2.62,28.39h6.5l-2.72-28.39h-.01Z"/>
    <path class="st0" d="M223.29,126.15c-.84-2.62-1.15-4.19-3.25-22.52-.73-7.33-1.68-8.38-3.77-8.38h-2.51v30.91h-16.45V46.84h23.99c14.25,0,17.91,6.08,17.91,21.37,0,16.34-2.3,17.5-6.81,20.11v.63c.84.73,1.78,1.36,2.51,3.25,1.15,2.51,2.3,7.23,3.46,16.45,1.57,12.89,1.68,14.67,2.41,16.97v.52h-17.5,0ZM218.36,80.47c3.04,0,4.19-2.1,4.19-9.43,0-6.29-1.36-7.86-4.61-7.86h-4.19v17.29h4.61Z"/>
  </g>
  <g>
    <path class="st0" d="M246.97,126.15V46.84h16.45v61.71h16.97v17.6h-33.42Z"/>
    <path class="st0" d="M289.4,126.15v-28.91l-14.46-49.87v-.52h16.97c4.5,19.8,5.03,22.31,5.66,25.67h1.05c.63-3.35,1.15-5.87,5.87-25.67h16.45v.52l-13.83,49.66v29.12h-17.71Z"/>
  </g>
  <g>
    <path class="st0" d="M655.33,64.14l-.06-.14c-1.34-2.94-4.12-3.34-6.67-3.34h-8.07v50.82h8.08c2.62,0,5.48-.44,6.73-3.7l.04-.12c.77-2.32,1.09-4.92,1.09-21.53s-.33-19.58-1.09-21.85l-.05-.14Z"/>
    <polygon class="st0" points="527.25 60.56 524.11 94.62 524.11 94.62 536.83 94.62 533.56 60.56 527.25 60.56"/>
    <path class="st0" d="M782.89,71.6c-9.36-13.35-26.91-32.58-37.8-44.15-5.97-6.33-14.27-9.92-22.97-9.92h-347.39c-11.66,0-21.12,9.46-21.12,21.12v95.68c0,11.66,9.46,21.12,21.12,21.12h346.29,0c9.42,0,18.42-3.9,24.87-10.77,10.93-11.64,27.87-30.27,37-43.31,6.26-8.94,6.26-20.83,0-29.77ZM416.61,123.31h-22.21V49.67h20.74c12.1,0,15.6,4.16,15.6,18.54,0,11.29-1.36,12.25-4.34,14.34l-1.21.85v3.78l1.33.83c.29.18.57.35.84.51,2.95,1.79,4.43,2.68,4.43,16.25,0,14.55-3.26,18.54-15.18,18.54ZM478.49,123.32h.02c-.49-2.29-1.06-6.61-2.6-20.02-.53-5.33-1.09-10.89-6.59-10.89h-5.35v30.91h-10.78V49.67h21.16c11.84,0,15.08,3.98,15.08,18.54s-1.64,15.48-5.25,17.58l-1.56.91v3.55l.97.85.34.29c.66.56,1.02.86,1.4,1.85l.06.15c1.17,2.56,2.23,7.67,3.22,15.62.3,2.46.55,4.52.75,6.26.49,4.1.77,6.44,1.03,8.05h-11.9ZM538.44,123.31l-1.36-18.33h-13.24l-1.26,18.33h-10.75l7.88-73.64h22.55l7.39,73.64h-11.21ZM608.35,123.31h-3.91l-18.75-42.53h-5.31v42.53h-9.32V49.67h11.39l11.1,27.56h5.38v-27.56h9.42v73.64ZM664.19,118.41c-1.8,3.11-4.84,4.89-15.16,4.89h-19.27V49.67h19.27c10.22,0,13.37,1.87,15.16,4.89,2.34,4.06,3.38,8.31,3.38,31.87s-1.03,28-3.38,31.98ZM705.33,124.67s0,0,0,0h0s0,0,0,0c-12.14,0-16.23-3.51-16.23-13.93,0-3.28.14-6.18.39-8.27h8.29v.1c0,4.34,0,10.9,7.86,10.9,7.37,0,7.97-4.94,7.97-10.9,0-5.31-1.82-7.6-5.18-9.97-2.46-1.66-5.09-2.86-7.63-4.02-3.1-1.42-6.02-2.76-8.14-4.67-3.31-2.91-3.67-8.1-3.67-18.43,0-13.8,3.29-17.18,16.76-17.18s16.34,3.15,16.34,14.66c0,2.56-.08,4.3-.27,5.65h-8.42v-.62c0-4.51-.59-9.33-7.65-9.33s-7.55,4.82-7.55,9.33c0,5.73,1.73,7.82,5.15,9.87,3.29,1.92,5.98,3.11,8.36,4.16,2.27,1,4.23,1.87,6.08,3.1,3.36,2.37,5.44,4.77,5.44,17.76,0,18.64-4.47,21.79-17.9,21.79Z"/>
    <path class="st0" d="M412.82,82.26c7.03,0,7.03-7.48,7.03-11.95,0-3.44,0-10.59-7.45-10.59h-7.23v22.54h7.65Z"/>
    <path class="st0" d="M471.01,60.35h-7.03v22.95h7.44c7.03,0,7.03-7.68,7.03-12.26,0-3.47,0-10.69-7.44-10.69Z"/>
    <path class="st0" d="M413.65,89.68h-8.49v23.27h8.08c7.44,0,7.44-7.01,7.44-10.38,0-4.18,0-12.89-7.03-12.89Z"/>
  </g>
</svg>