<?xml version="1.0" encoding="UTF-8"?>
<svg id="Capa_1" data-name="Capa 1" xmlns="http://www.w3.org/2000/svg" viewBox="0 0 352.8 87.98">
  <defs>
    <style>
      .cls-1 {
        fill: #fff;
        fill-rule: evenodd;
      }
    </style>
  </defs>
  <path class="cls-1" d="M202.76,0h-11.71c-2.88,0-5.23,2.35-5.23,5.23v.28C179.57,2.01,172.36,0,164.68,0,140.75,0,121.36,19.4,121.36,43.31s19.39,43.32,43.32,43.32c7.68,0,14.89-2,21.15-5.51v1.62c0,2.88,2.35,5.23,5.23,5.23h11.71c2.88,0,5.23-2.35,5.23-5.23V5.23C207.99,2.35,205.64,0,202.76,0ZM185.83,43.27v.09c-.03,9.12-7.42,16.5-16.54,16.5s-16.55-7.41-16.55-16.54,7.41-16.55,16.55-16.55,16.51,7.38,16.54,16.5"/>
  <path class="cls-1" d="M64.77,5.19c-2.64,1.92-4.92,4.3-6.71,7.01-1,1.51-2.55,2.35-4.37,2.35s-3.37-.84-4.37-2.35c-1.79-2.72-4.07-5.1-6.71-7.01C38.17,1.93,32.69,0,26.76,0c-1.57,0-3.11.13-4.6.39C9.57,2.58,0,13.56,0,26.77v55.97c0,2.88,2.35,5.23,5.23,5.23h11.7c2.88,0,5.23-2.35,5.23-5.23v-36.25c0-5.65,4.59-10.23,10.22-10.23s10.16,4.52,10.23,10.11v36.36c0,2.88,2.35,5.23,5.23,5.23h11.71c2.88,0,5.23-2.35,5.23-5.23v-36.37c.06-5.59,4.6-10.11,10.22-10.11s10.22,4.58,10.22,10.23v36.25c0,2.88,2.35,5.23,5.23,5.23h11.7c2.88,0,5.23-2.35,5.23-5.23V26.77c0-13.21-9.57-24.19-22.16-26.37-1.49-.26-3.04-.39-4.6-.39-5.93,0-11.41,1.92-15.84,5.18Z"/>
  <path class="cls-1" d="M225.2,13.37v69.38c0,2.89,2.35,5.23,5.23,5.23h11.71c2.88,0,5.23-2.35,5.23-5.23v-43.48c0-2.35,1.49-4.35,3.75-5.02,13.37-3.95,24.05-14.19,28.61-27.3.57-1.65.34-3.32-.67-4.75-1.01-1.42-2.52-2.2-4.27-2.2h-13.47c-1.43,0-2.67.51-3.68,1.52-5,4.95-11.74,7.73-18.82,7.73-2.43,0-4.78-.32-7.01-.93-1.62-.44-3.21-.12-4.55.89-1.34,1.02-2.05,2.47-2.05,4.15Z"/>
  <path class="cls-1" d="M347.57,0h-11.71c-2.88,0-5.23,2.35-5.23,5.23v.28C324.38,2.01,317.17,0,309.49,0c-1.79,0-3.55.11-5.27.32-2.25.27-4,1.87-4.48,4.09-3.87,17.82-13.8,32.34-30.21,41.36-2.01,1.11-3.04,3.29-2.62,5.55,3.75,20.1,21.39,35.32,42.58,35.32,7.68,0,14.89-2,21.15-5.51v1.62c0,2.88,2.35,5.23,5.23,5.23h11.71c2.88,0,5.23-2.35,5.23-5.23V5.23c0-2.88-2.35-5.23-5.23-5.23ZM330.64,43.27v.09c-.03,9.12-7.42,16.5-16.54,16.5s-16.55-7.41-16.55-16.54,7.41-16.55,16.55-16.55,16.51,7.38,16.54,16.5"/>
</svg>